# xmcd
#
# Track frame offsets:
# 150
# 21751
# 42054
# 58801
# 78134
# 95906
# 117124
# 137787
# 158650
# 177642
# 197595
# 220491
# 243944
#
# Disc length: 3481 seconds
#
# Revision: 0
# Processed by: cddbd v1.5.2PL0 Copyright (c) Steve Scherf et al.
# Submitted via: CoinsHifi v1.9h contact@coinshifi.com
#
DISCID=b10d970d
DTITLE=PETER CINCOTTI - EAST of ANGEL TOWN
DYEAR=2007
DGENRE=Pop
TTITLE0=ANGEL TOWN
TTITLE1=GOOD BYE PHILADELPHIA
TTITLE2=BE CAREFUL
TTITLE3=CINDERELLA BEAUTIFUL
TTITLE4=MAKE IT OUT ALIVE
TTITLE5=DECEMBERS BOY'S
TTITLE6=U B U
TTITLE7=ANOTHER FALLING STAR
TTITLE8=BROKEN CHILDREN
TTITLE9=MAN ON MISSION
TTITLE10=ALWAYS WATCHING YOU
TTITLE11=WITCH'S BREW
TTITLE12=THE COUNTRY LIFE
EXTD=
EXTT0=Instrumental
EXTT1=Instrumental
EXTT2=Instrumental
EXTT3=Instrumental
EXTT4=Instrumental
EXTT5=Instrumental
EXTT6=Instrumental
EXTT7=Instrumental
EXTT8=Instrumental
EXTT9=Instrumental
EXTT10=Instrumental
EXTT11=Instrumental
EXTT12=Instrumental
PLAYORDER=
